<?xml version="1.0" encoding="UTF-8" ?>
<svg version="1.1" width="64" height="64" xmlns="http://www.w3.org/2000/svg" shape-rendering="crispEdges">
<filter id="outline"><feComponentTransfer in="SourceGraphic" result="solid"><feFuncA type="linear" slope="15" intercept="0"/></feComponentTransfer><feMorphology in="solid" result="dilated" operator="dilate" radius="1"/><feFlood flood-color="#ffffff" result="flood"/><feComposite in="flood" in2="dilated" operator="in" result="stroke"/><feMerge><feMergeNode in="stroke"/><feMergeNode in="solid"/></feMerge></filter>
<g filter="url(#outline)">
<rect x="26" y="4" width="15" height="1" fill="#343535" />
<rect x="24" y="5" width="2" height="1" fill="#343535" />
<rect x="26" y="5" width="15" height="6" fill="#D6E7F0" opacity="0.800000" />
<rect x="41" y="5" width="5" height="1" fill="#343535" />
<rect x="21" y="6" width="3" height="1" fill="#343535" />
<rect x="24" y="6" width="2" height="5" fill="#D6E7F0" opacity="0.800000" />
<rect x="41" y="6" width="5" height="4" fill="#D6E7F0" opacity="0.800000" />
<rect x="46" y="6" width="2" height="1" fill="#343535" />
<rect x="18" y="7" width="3" height="1" fill="#343535" />
<rect x="21" y="7" width="3" height="4" fill="#D6E7F0" opacity="0.800000" />
<rect x="46" y="7" width="2" height="2" fill="#D6E7F0" opacity="0.800000" />
<rect x="48" y="7" width="2" height="2" fill="#343535" />
<rect x="16" y="8" width="2" height="2" fill="#343535" />
<rect x="18" y="8" width="3" height="2" fill="#D6E7F0" opacity="0.800000" />
<rect x="46" y="9" width="2" height="1" fill="#343535" />
<rect x="48" y="9" width="1" height="39" fill="#D6E7F0" opacity="0.960784" />
<rect x="49" y="9" width="1" height="41" fill="#343535" />
<rect x="16" y="10" width="1" height="40" fill="#343535" />
<rect x="17" y="10" width="1" height="38" fill="#D6E7F0" opacity="0.960784" />
<rect x="18" y="10" width="3" height="1" fill="#343535" />
<rect x="41" y="10" width="2" height="1" fill="#D6E7F0" opacity="0.800000" />
<rect x="43" y="10" width="3" height="1" fill="#343535" />
<rect x="46" y="10" width="2" height="38" fill="#D6E7F0" opacity="0.960784" />
<rect x="18" y="11" width="3" height="8" fill="#D6E7F0" opacity="0.960784" />
<rect x="21" y="11" width="4" height="1" fill="#343535" />
<rect x="25" y="11" width="15" height="1" fill="#D6E7F0" opacity="0.800000" />
<rect x="40" y="11" width="3" height="1" fill="#343535" />
<rect x="43" y="11" width="3" height="5" fill="#D6E7F0" opacity="0.960784" />
<rect x="21" y="12" width="4" height="5" fill="#D6E7F0" opacity="0.960784" />
<rect x="25" y="12" width="15" height="1" fill="#343535" />
<rect x="40" y="12" width="3" height="4" fill="#D6E7F0" opacity="0.960784" />
<rect x="53" y="12" width="4" height="1" fill="#343535" />
<rect x="25" y="13" width="15" height="5" fill="#D6E7F0" opacity="0.960784" />
<rect x="50" y="13" width="3" height="1" fill="#343535" />
<rect x="53" y="13" width="3" height="1" fill="#525354" />
<rect x="56" y="13" width="1" height="1" fill="#707272" />
<rect x="57" y="13" width="2" height="1" fill="#343535" />
<rect x="50" y="14" width="2" height="3" fill="#525354" />
<rect x="52" y="14" width="1" height="2" fill="#707272" />
<rect x="53" y="14" width="1" height="1" fill="#525354" />
<rect x="54" y="14" width="1" height="1" fill="#707272" />
<rect x="55" y="14" width="2" height="1" fill="#9EA1A1" />
<rect x="57" y="14" width="1" height="1" fill="#525354" />
<rect x="58" y="14" width="1" height="2" fill="#707272" />
<rect x="59" y="14" width="1" height="2" fill="#343535" />
<rect x="53" y="15" width="1" height="1" fill="#707272" />
<rect x="54" y="15" width="1" height="1" fill="#525354" />
<rect x="55" y="15" width="1" height="2" fill="#707272" />
<rect x="56" y="15" width="2" height="1" fill="#9EA1A1" />
<rect x="40" y="16" width="2" height="1" fill="#D6E7F0" opacity="0.960784" />
<rect x="42" y="16" width="2" height="1" fill="#343535" />
<rect x="44" y="16" width="2" height="1" fill="#D6E7F0" opacity="0.960784" />
<rect x="52" y="16" width="2" height="1" fill="#525354" />
<rect x="54" y="16" width="1" height="1" fill="#707272" />
<rect x="56" y="16" width="1" height="2" fill="#707272" />
<rect x="57" y="16" width="2" height="1" fill="#9EA1A1" />
<rect x="59" y="16" width="1" height="1" fill="#707272" />
<rect x="60" y="16" width="1" height="1" fill="#343535" />
<rect x="21" y="17" width="1" height="1" fill="#D6E7F0" opacity="0.960784" />
<rect x="22" y="17" width="2" height="1" fill="#343535" />
<rect x="24" y="17" width="1" height="1" fill="#D6E7F0" opacity="0.960784" />
<rect x="40" y="17" width="1" height="1" fill="#D6E7F0" opacity="0.960784" />
<rect x="41" y="17" width="1" height="1" fill="#343535" />
<rect x="42" y="17" width="2" height="26" fill="#CCD9E1" opacity="0.960784" />
<rect x="44" y="17" width="1" height="1" fill="#343535" />
<rect x="45" y="17" width="1" height="1" fill="#D6E7F0" opacity="0.960784" />
<rect x="50" y="17" width="4" height="1" fill="#343535" />
<rect x="54" y="17" width="2" height="1" fill="#525354" />
<rect x="57" y="17" width="1" height="1" fill="#525354" />
<rect x="58" y="17" width="2" height="1" fill="#9EA1A1" />
<rect x="60" y="17" width="1" height="7" fill="#707272" />
<rect x="61" y="17" width="1" height="23" fill="#343535" />
<rect x="21" y="18" width="1" height="1" fill="#343535" />
<rect x="22" y="18" width="2" height="26" fill="#CCD9E1" opacity="0.960784" />
<rect x="24" y="18" width="1" height="1" fill="#343535" />
<rect x="25" y="18" width="7" height="1" fill="#D6E7F0" opacity="0.960784" />
<rect x="32" y="18" width="2" height="1" fill="#343535" />
<rect x="34" y="18" width="6" height="1" fill="#D6E7F0" opacity="0.960784" />
<rect x="40" y="18" width="1" height="24" fill="#343535" />
<rect x="41" y="18" width="1" height="24" fill="#CCD9E1" opacity="0.960784" />
<rect x="44" y="18" width="1" height="24" fill="#CCD9E1" opacity="0.960784" />
<rect x="45" y="18" width="1" height="24" fill="#343535" />
<rect x="54" y="18" width="2" height="1" fill="#343535" />
<rect x="56" y="18" width="1" height="1" fill="#525354" />
<rect x="57" y="18" width="2" height="1" fill="#707272" />
<rect x="59" y="18" width="1" height="6" fill="#9EA1A1" />
<rect x="18" y="19" width="2" height="29" fill="#D6E7F0" opacity="0.960784" />
<rect x="20" y="19" width="1" height="24" fill="#343535" />
<rect x="21" y="19" width="1" height="24" fill="#CCD9E1" opacity="0.960784" />
<rect x="24" y="19" width="1" height="24" fill="#CCD9E1" opacity="0.960784" />
<rect x="25" y="19" width="1" height="24" fill="#343535" />
<rect x="26" y="19" width="5" height="1" fill="#D6E7F0" opacity="0.960784" />
<rect x="31" y="19" width="1" height="1" fill="#343535" />
<rect x="32" y="19" width="2" height="27" fill="#CCD9E1" opacity="0.960784" />
<rect x="34" y="19" width="1" height="1" fill="#343535" />
<rect x="35" y="19" width="5" height="1" fill="#D6E7F0" opacity="0.960784" />
<rect x="56" y="19" width="1" height="3" fill="#343535" />
<rect x="57" y="19" width="1" height="3" fill="#525354" />
<rect x="58" y="19" width="1" height="1" fill="#707272" />
<rect x="26" y="20" width="4" height="26" fill="#D6E7F0" opacity="0.960784" />
<rect x="30" y="20" width="1" height="25" fill="#343535" />
<rect x="31" y="20" width="1" height="25" fill="#CCD9E1" opacity="0.960784" />
<rect x="34" y="20" width="1" height="25" fill="#CCD9E1" opacity="0.960784" />
<rect x="35" y="20" width="1" height="25" fill="#343535" />
<rect x="36" y="20" width="4" height="26" fill="#D6E7F0" opacity="0.960784" />
<rect x="58" y="20" width="1" height="13" fill="#525354" />
<rect x="57" y="22" width="1" height="14" fill="#343535" />
<rect x="59" y="24" width="1" height="9" fill="#707272" />
<rect x="60" y="24" width="1" height="7" fill="#9EA1A1" />
<rect x="60" y="31" width="1" height="1" fill="#707272" />
<rect x="60" y="32" width="1" height="1" fill="#9EA1A1" />
<rect x="58" y="33" width="1" height="1" fill="#707272" />
<rect x="59" y="33" width="1" height="3" fill="#9EA1A1" />
<rect x="60" y="33" width="1" height="5" fill="#707272" />
<rect x="58" y="34" width="1" height="1" fill="#525354" />
<rect x="58" y="35" width="1" height="7" fill="#707272" />
<rect x="56" y="36" width="1" height="3" fill="#343535" />
<rect x="57" y="36" width="1" height="3" fill="#525354" />
<rect x="59" y="36" width="1" height="1" fill="#707272" />
<rect x="59" y="37" width="1" height="1" fill="#525354" />
<rect x="59" y="38" width="1" height="2" fill="#707272" />
<rect x="60" y="38" width="1" height="2" fill="#525354" />
<rect x="55" y="39" width="1" height="1" fill="#343535" />
<rect x="56" y="39" width="1" height="1" fill="#525354" />
<rect x="57" y="39" width="1" height="3" fill="#707272" />
<rect x="52" y="40" width="3" height="1" fill="#343535" />
<rect x="55" y="40" width="1" height="1" fill="#525354" />
<rect x="56" y="40" width="1" height="4" fill="#707272" />
<rect x="59" y="40" width="1" height="1" fill="#525354" />
<rect x="60" y="40" width="1" height="1" fill="#343535" />
<rect x="50" y="41" width="2" height="1" fill="#343535" />
<rect x="52" y="41" width="3" height="1" fill="#525354" />
<rect x="55" y="41" width="1" height="4" fill="#707272" />
<rect x="59" y="41" width="1" height="1" fill="#343535" />
<rect x="40" y="42" width="1" height="5" fill="#D6E7F0" opacity="0.960784" />
<rect x="41" y="42" width="1" height="1" fill="#343535" />
<rect x="44" y="42" width="1" height="1" fill="#343535" />
<rect x="45" y="42" width="1" height="6" fill="#D6E7F0" opacity="0.960784" />
<rect x="50" y="42" width="2" height="1" fill="#525354" />
<rect x="52" y="42" width="2" height="1" fill="#707272" />
<rect x="54" y="42" width="1" height="1" fill="#525354" />
<rect x="57" y="42" width="1" height="1" fill="#525354" />
<rect x="58" y="42" width="1" height="1" fill="#343535" />
<rect x="20" y="43" width="1" height="5" fill="#D6E7F0" opacity="0.960784" />
<rect x="21" y="43" width="1" height="1" fill="#343535" />
<rect x="24" y="43" width="1" height="1" fill="#343535" />
<rect x="25" y="43" width="1" height="4" fill="#D6E7F0" opacity="0.960784" />
<rect x="41" y="43" width="1" height="4" fill="#D6E7F0" opacity="0.960784" />
<rect x="42" y="43" width="2" height="1" fill="#343535" />
<rect x="44" y="43" width="1" height="5" fill="#D6E7F0" opacity="0.960784" />
<rect x="50" y="43" width="1" height="2" fill="#525354" />
<rect x="51" y="43" width="2" height="1" fill="#707272" />
<rect x="53" y="43" width="1" height="1" fill="#525354" />
<rect x="54" y="43" width="1" height="2" fill="#707272" />
<rect x="57" y="43" width="1" height="1" fill="#343535" />
<rect x="21" y="44" width="1" height="3" fill="#D6E7F0" opacity="0.960784" />
<rect x="22" y="44" width="2" height="1" fill="#343535" />
<rect x="24" y="44" width="1" height="3" fill="#D6E7F0" opacity="0.960784" />
<rect x="42" y="44" width="2" height="3" fill="#D6E7F0" opacity="0.960784" />
<rect x="51" y="44" width="2" height="2" fill="#525354" />
<rect x="53" y="44" width="1" height="1" fill="#707272" />
<rect x="56" y="44" width="1" height="1" fill="#343535" />
<rect x="22" y="45" width="2" height="2" fill="#D6E7F0" opacity="0.960784" />
<rect x="30" y="45" width="1" height="1" fill="#D6E7F0" opacity="0.960784" />
<rect x="31" y="45" width="1" height="1" fill="#343535" />
<rect x="34" y="45" width="1" height="1" fill="#343535" />
<rect x="35" y="45" width="1" height="1" fill="#D6E7F0" opacity="0.960784" />
<rect x="50" y="45" width="1" height="1" fill="#343535" />
<rect x="53" y="45" width="1" height="1" fill="#525354" />
<rect x="54" y="45" width="2" height="1" fill="#343535" />
<rect x="26" y="46" width="1" height="1" fill="#D6E7F0" opacity="0.960784" />
<rect x="27" y="46" width="5" height="1" fill="#BBC9D0" />
<rect x="32" y="46" width="2" height="1" fill="#343535" />
<rect x="34" y="46" width="3" height="1" fill="#BBC9D0" />
<rect x="37" y="46" width="3" height="1" fill="#D6E7F0" opacity="0.960784" />
<rect x="51" y="46" width="3" height="1" fill="#343535" />
<rect x="21" y="47" width="6" height="1" fill="#BBC9D0" />
<rect x="27" y="47" width="10" height="6" fill="#D6E7F0" opacity="0.960784" />
<rect x="37" y="47" width="7" height="1" fill="#BBC9D0" />
<rect x="17" y="48" width="4" height="1" fill="#BBC9D0" />
<rect x="21" y="48" width="6" height="4" fill="#D6E7F0" opacity="0.960784" />
<rect x="37" y="48" width="7" height="4" fill="#D6E7F0" opacity="0.960784" />
<rect x="44" y="48" width="5" height="1" fill="#BBC9D0" />
<rect x="15" y="49" width="1" height="1" fill="#343535" />
<rect x="17" y="49" width="4" height="2" fill="#D6E7F0" opacity="0.960784" />
<rect x="44" y="49" width="5" height="2" fill="#D6E7F0" opacity="0.960784" />
<rect x="14" y="50" width="1" height="2" fill="#343535" />
<rect x="15" y="50" width="2" height="1" fill="#D6E7F0" opacity="0.960784" />
<rect x="49" y="50" width="1" height="1" fill="#D6E7F0" opacity="0.960784" />
<rect x="50" y="50" width="1" height="3" fill="#343535" />
<rect x="13" y="51" width="1" height="2" fill="#343535" />
<rect x="15" y="51" width="4" height="1" fill="#343535" />
<rect x="19" y="51" width="2" height="1" fill="#D6E7F0" opacity="0.960784" />
<rect x="44" y="51" width="1" height="1" fill="#D6E7F0" opacity="0.960784" />
<rect x="45" y="51" width="5" height="1" fill="#343535" />
<rect x="12" y="52" width="1" height="1" fill="#343535" />
<rect x="14" y="52" width="5" height="2" fill="#707272" />
<rect x="19" y="52" width="7" height="1" fill="#343535" />
<rect x="26" y="52" width="1" height="1" fill="#D6E7F0" opacity="0.960784" />
<rect x="37" y="52" width="2" height="1" fill="#D6E7F0" opacity="0.960784" />
<rect x="39" y="52" width="6" height="1" fill="#343535" />
<rect x="45" y="52" width="5" height="2" fill="#707272" />
<rect x="51" y="52" width="1" height="1" fill="#343535" />
<rect x="11" y="53" width="1" height="3" fill="#343535" />
<rect x="12" y="53" width="2" height="1" fill="#525354" />
<rect x="19" y="53" width="7" height="1" fill="#707272" />
<rect x="26" y="53" width="13" height="1" fill="#343535" />
<rect x="39" y="53" width="6" height="1" fill="#707272" />
<rect x="50" y="53" width="2" height="1" fill="#525354" />
<rect x="52" y="53" width="1" height="3" fill="#343535" />
<rect x="12" y="54" width="1" height="1" fill="#525354" />
<rect x="13" y="54" width="1" height="1" fill="#707272" />
<rect x="14" y="54" width="3" height="1" fill="#525354" />
<rect x="17" y="54" width="3" height="1" fill="#707272" />
<rect x="20" y="54" width="4" height="1" fill="#9EA1A1" />
<rect x="24" y="54" width="16" height="1" fill="#707272" />
<rect x="40" y="54" width="4" height="1" fill="#9EA1A1" />
<rect x="44" y="54" width="3" height="1" fill="#707272" />
<rect x="47" y="54" width="3" height="1" fill="#525354" />
<rect x="50" y="54" width="2" height="1" fill="#707272" />
<rect x="12" y="55" width="2" height="1" fill="#343535" />
<rect x="14" y="55" width="3" height="1" fill="#707272" />
<rect x="17" y="55" width="6" height="1" fill="#525354" />
<rect x="23" y="55" width="3" height="1" fill="#707272" />
<rect x="26" y="55" width="13" height="1" fill="#9EA1A1" />
<rect x="39" y="55" width="2" height="1" fill="#707272" />
<rect x="41" y="55" width="6" height="1" fill="#525354" />
<rect x="47" y="55" width="3" height="1" fill="#707272" />
<rect x="50" y="55" width="2" height="1" fill="#343535" />
<rect x="14" y="56" width="4" height="1" fill="#343535" />
<rect x="18" y="56" width="5" height="1" fill="#707272" />
<rect x="23" y="56" width="18" height="1" fill="#525354" />
<rect x="41" y="56" width="6" height="1" fill="#707272" />
<rect x="47" y="56" width="3" height="1" fill="#343535" />
<rect x="18" y="57" width="5" height="1" fill="#343535" />
<rect x="23" y="57" width="19" height="1" fill="#707272" />
<rect x="42" y="57" width="5" height="1" fill="#343535" />
<rect x="23" y="58" width="19" height="1" fill="#343535" />
</g>
</svg>
