<?xml version="1.0" encoding="UTF-8" ?>
<svg version="1.1" width="64" height="64" xmlns="http://www.w3.org/2000/svg" shape-rendering="crispEdges">
<rect x="26" y="0" width="11" height="1" fill="#2A160C" />
<rect x="25" y="1" width="1" height="2" fill="#2A160C" />
<rect x="26" y="1" width="1" height="1" fill="#583322" />
<rect x="27" y="1" width="1" height="1" fill="#8F563B" />
<rect x="28" y="1" width="5" height="1" fill="#6E4531" />
<rect x="33" y="1" width="1" height="1" fill="#583322" />
<rect x="34" y="1" width="3" height="1" fill="#6E4531" />
<rect x="37" y="1" width="1" height="2" fill="#2A160C" />
<rect x="26" y="2" width="4" height="1" fill="#6E4531" />
<rect x="30" y="2" width="1" height="2" fill="#583322" />
<rect x="31" y="2" width="1" height="4" fill="#6E4531" />
<rect x="32" y="2" width="1" height="1" fill="#583322" />
<rect x="33" y="2" width="1" height="1" fill="#8F563B" />
<rect x="34" y="2" width="1" height="1" fill="#583322" />
<rect x="35" y="2" width="2" height="1" fill="#6E4531" />
<rect x="24" y="3" width="1" height="2" fill="#2A160C" />
<rect x="25" y="3" width="1" height="2" fill="#6E4531" />
<rect x="26" y="3" width="1" height="1" fill="#8F563B" />
<rect x="27" y="3" width="3" height="1" fill="#6E4531" />
<rect x="32" y="3" width="2" height="1" fill="#6E4531" />
<rect x="34" y="3" width="1" height="1" fill="#8F563B" />
<rect x="35" y="3" width="1" height="3" fill="#6E4531" />
<rect x="36" y="3" width="1" height="1" fill="#583322" />
<rect x="37" y="3" width="1" height="1" fill="#6E4531" />
<rect x="38" y="3" width="1" height="2" fill="#2A160C" />
<rect x="26" y="4" width="1" height="2" fill="#583322" />
<rect x="27" y="4" width="1" height="2" fill="#6E4531" />
<rect x="28" y="4" width="1" height="1" fill="#583322" />
<rect x="29" y="4" width="1" height="1" fill="#8F563B" />
<rect x="30" y="4" width="1" height="2" fill="#6E4531" />
<rect x="32" y="4" width="1" height="1" fill="#583322" />
<rect x="33" y="4" width="1" height="1" fill="#8F563B" />
<rect x="34" y="4" width="1" height="2" fill="#6E4531" />
<rect x="36" y="4" width="2" height="1" fill="#8F563B" />
<rect x="39" y="4" width="1" height="1" fill="#2E092A" />
<rect x="23" y="5" width="2" height="1" fill="#2E092A" />
<rect x="25" y="5" width="1" height="2" fill="#2A160C" />
<rect x="28" y="5" width="2" height="1" fill="#6E4531" />
<rect x="32" y="5" width="2" height="1" fill="#6E4531" />
<rect x="36" y="5" width="1" height="1" fill="#583322" />
<rect x="37" y="5" width="1" height="2" fill="#2A160C" />
<rect x="38" y="5" width="2" height="1" fill="#93879C" />
<rect x="40" y="5" width="1" height="1" fill="#2E092A" />
<rect x="22" y="6" width="1" height="4" fill="#2E092A" />
<rect x="23" y="6" width="1" height="1" fill="#93879C" />
<rect x="24" y="6" width="1" height="1" fill="#2E092A" />
<rect x="26" y="6" width="1" height="1" fill="#6E4531" />
<rect x="27" y="6" width="9" height="1" fill="#583322" />
<rect x="36" y="6" width="1" height="1" fill="#6E4531" />
<rect x="38" y="6" width="1" height="1" fill="#93879C" />
<rect x="39" y="6" width="1" height="1" fill="#2E092A" />
<rect x="40" y="6" width="1" height="4" fill="#93879C" />
<rect x="41" y="6" width="1" height="4" fill="#2E092A" />
<rect x="23" y="7" width="1" height="1" fill="#CEC4CD" />
<rect x="24" y="7" width="1" height="1" fill="#93879C" />
<rect x="25" y="7" width="2" height="1" fill="#2E092A" />
<rect x="27" y="7" width="3" height="1" fill="#6E4531" />
<rect x="30" y="7" width="2" height="1" fill="#8F563B" />
<rect x="32" y="7" width="2" height="1" fill="#6E4531" />
<rect x="34" y="7" width="1" height="1" fill="#8F563B" />
<rect x="35" y="7" width="1" height="1" fill="#6E4531" />
<rect x="36" y="7" width="3" height="1" fill="#2E092A" />
<rect x="39" y="7" width="1" height="2" fill="#CEC4CD" />
<rect x="23" y="8" width="1" height="2" fill="#93879C" />
<rect x="24" y="8" width="1" height="1" fill="#CEC4CD" />
<rect x="25" y="8" width="2" height="1" fill="#93879C" />
<rect x="27" y="8" width="9" height="1" fill="#2E092A" />
<rect x="36" y="8" width="1" height="1" fill="#93879C" />
<rect x="37" y="8" width="2" height="1" fill="#DDD6DC" />
<rect x="24" y="9" width="1" height="1" fill="#93879C" />
<rect x="25" y="9" width="1" height="1" fill="#CEC4CD" />
<rect x="26" y="9" width="10" height="1" fill="#93879C" />
<rect x="36" y="9" width="1" height="1" fill="#DDD6DC" />
<rect x="37" y="9" width="1" height="1" fill="#CEC4CD" />
<rect x="38" y="9" width="2" height="1" fill="#93879C" />
<rect x="23" y="10" width="2" height="1" fill="#2E092A" />
<rect x="25" y="10" width="1" height="1" fill="#93879C" />
<rect x="26" y="10" width="5" height="1" fill="#CEC4CD" />
<rect x="31" y="10" width="5" height="1" fill="#DDD6DC" />
<rect x="36" y="10" width="1" height="5" fill="#583322" />
<rect x="37" y="10" width="2" height="1" fill="#93879C" />
<rect x="39" y="10" width="2" height="1" fill="#2E092A" />
<rect x="25" y="11" width="1" height="8" fill="#2E092A" />
<rect x="26" y="11" width="1" height="5" fill="#93879C" />
<rect x="27" y="11" width="1" height="4" fill="#583322" />
<rect x="28" y="11" width="7" height="1" fill="#6E4531" />
<rect x="35" y="11" width="1" height="4" fill="#8F563B" />
<rect x="37" y="11" width="1" height="4" fill="#93879C" />
<rect x="38" y="11" width="1" height="8" fill="#2E092A" />
<rect x="28" y="12" width="1" height="1" fill="#6E4531" />
<rect x="29" y="12" width="6" height="1" fill="#8F563B" />
<rect x="28" y="13" width="1" height="2" fill="#8F563B" />
<rect x="29" y="13" width="1" height="1" fill="#6E4531" />
<rect x="30" y="13" width="3" height="1" fill="#8F563B" />
<rect x="33" y="13" width="1" height="1" fill="#6E4531" />
<rect x="34" y="13" width="1" height="1" fill="#8F563B" />
<rect x="29" y="14" width="1" height="2" fill="#8F563B" />
<rect x="30" y="14" width="1" height="1" fill="#6E4531" />
<rect x="31" y="14" width="3" height="1" fill="#8F563B" />
<rect x="34" y="14" width="1" height="1" fill="#6E4531" />
<rect x="27" y="15" width="1" height="1" fill="#93879C" />
<rect x="28" y="15" width="1" height="1" fill="#583322" />
<rect x="30" y="15" width="3" height="1" fill="#8F563B" />
<rect x="33" y="15" width="1" height="1" fill="#6E4531" />
<rect x="34" y="15" width="1" height="1" fill="#8F563B" />
<rect x="35" y="15" width="1" height="1" fill="#583322" />
<rect x="36" y="15" width="1" height="1" fill="#93879C" />
<rect x="37" y="15" width="1" height="1" fill="#CEC4CD" />
<rect x="26" y="16" width="2" height="1" fill="#CEC4CD" />
<rect x="28" y="16" width="1" height="2" fill="#93879C" />
<rect x="29" y="16" width="6" height="1" fill="#583322" />
<rect x="35" y="16" width="1" height="4" fill="#93879C" />
<rect x="36" y="16" width="1" height="1" fill="#CEC4CD" />
<rect x="37" y="16" width="1" height="1" fill="#DDD6DC" />
<rect x="26" y="17" width="1" height="2" fill="#93879C" />
<rect x="27" y="17" width="1" height="1" fill="#CEC4CD" />
<rect x="29" y="17" width="6" height="4" fill="#93879C" />
<rect x="36" y="17" width="2" height="2" fill="#93879C" />
<rect x="24" y="18" width="1" height="2" fill="#583322" />
<rect x="27" y="18" width="1" height="1" fill="#DDD6DC" />
<rect x="28" y="18" width="1" height="1" fill="#CEC4CD" />
<rect x="39" y="18" width="1" height="2" fill="#583322" />
<rect x="25" y="19" width="3" height="1" fill="#583322" />
<rect x="28" y="19" width="1" height="1" fill="#DDD6DC" />
<rect x="36" y="19" width="1" height="1" fill="#93879C" />
<rect x="37" y="19" width="2" height="1" fill="#583322" />
<rect x="23" y="20" width="1" height="1" fill="#2E092A" />
<rect x="24" y="20" width="1" height="1" fill="#4C3B4A" />
<rect x="25" y="20" width="2" height="4" fill="#93879C" />
<rect x="27" y="20" width="2" height="1" fill="#583322" />
<rect x="35" y="20" width="3" height="1" fill="#583322" />
<rect x="38" y="20" width="1" height="3" fill="#93879C" />
<rect x="39" y="20" width="1" height="1" fill="#4C3B4A" />
<rect x="40" y="20" width="1" height="1" fill="#2E092A" />
<rect x="22" y="21" width="1" height="1" fill="#2E092A" />
<rect x="23" y="21" width="1" height="1" fill="#4C3B4A" />
<rect x="24" y="21" width="1" height="4" fill="#93879C" />
<rect x="27" y="21" width="1" height="11" fill="#93879C" />
<rect x="28" y="21" width="8" height="1" fill="#583322" />
<rect x="36" y="21" width="2" height="1" fill="#93879C" />
<rect x="39" y="21" width="1" height="3" fill="#93879C" />
<rect x="40" y="21" width="1" height="1" fill="#4C3B4A" />
<rect x="41" y="21" width="1" height="1" fill="#2E092A" />
<rect x="21" y="22" width="1" height="1" fill="#2E092A" />
<rect x="22" y="22" width="1" height="1" fill="#4C3B4A" />
<rect x="23" y="22" width="1" height="4" fill="#93879C" />
<rect x="28" y="22" width="6" height="1" fill="#93879C" />
<rect x="34" y="22" width="2" height="1" fill="#583322" />
<rect x="36" y="22" width="2" height="1" fill="#AFA4B4" />
<rect x="40" y="22" width="1" height="3" fill="#93879C" />
<rect x="41" y="22" width="1" height="1" fill="#4C3B4A" />
<rect x="42" y="22" width="1" height="1" fill="#2E092A" />
<rect x="20" y="23" width="1" height="1" fill="#2E092A" />
<rect x="21" y="23" width="1" height="1" fill="#4C3B4A" />
<rect x="22" y="23" width="1" height="4" fill="#93879C" />
<rect x="28" y="23" width="5" height="9" fill="#93879C" />
<rect x="33" y="23" width="1" height="1" fill="#AFA4B4" />
<rect x="34" y="23" width="1" height="9" fill="#93879C" />
<rect x="35" y="23" width="2" height="1" fill="#583322" />
<rect x="37" y="23" width="2" height="1" fill="#AFA4B4" />
<rect x="41" y="23" width="1" height="5" fill="#93879C" />
<rect x="42" y="23" width="1" height="1" fill="#4C3B4A" />
<rect x="43" y="23" width="1" height="1" fill="#2E092A" />
<rect x="19" y="24" width="1" height="1" fill="#2E092A" />
<rect x="20" y="24" width="1" height="1" fill="#4C3B4A" />
<rect x="21" y="24" width="1" height="4" fill="#93879C" />
<rect x="25" y="24" width="1" height="3" fill="#CEC4CD" />
<rect x="26" y="24" width="1" height="8" fill="#93879C" />
<rect x="33" y="24" width="1" height="8" fill="#93879C" />
<rect x="35" y="24" width="1" height="8" fill="#93879C" />
<rect x="36" y="24" width="1" height="1" fill="#583322" />
<rect x="37" y="24" width="2" height="1" fill="#93879C" />
<rect x="39" y="24" width="1" height="1" fill="#AFA4B4" />
<rect x="42" y="24" width="1" height="5" fill="#93879C" />
<rect x="43" y="24" width="1" height="1" fill="#4C3B4A" />
<rect x="44" y="24" width="1" height="1" fill="#2E092A" />
<rect x="18" y="25" width="1" height="1" fill="#2E092A" />
<rect x="19" y="25" width="1" height="1" fill="#4C3B4A" />
<rect x="20" y="25" width="1" height="4" fill="#93879C" />
<rect x="24" y="25" width="1" height="3" fill="#CEC4CD" />
<rect x="36" y="25" width="1" height="3" fill="#93879C" />
<rect x="37" y="25" width="1" height="1" fill="#583322" />
<rect x="38" y="25" width="2" height="1" fill="#93879C" />
<rect x="40" y="25" width="1" height="2" fill="#AFA4B4" />
<rect x="43" y="25" width="1" height="6" fill="#93879C" />
<rect x="44" y="25" width="1" height="1" fill="#4C3B4A" />
<rect x="45" y="25" width="1" height="1" fill="#2E092A" />
<rect x="17" y="26" width="1" height="1" fill="#2E092A" />
<rect x="18" y="26" width="1" height="1" fill="#4C3B4A" />
<rect x="19" y="26" width="1" height="9" fill="#93879C" />
<rect x="23" y="26" width="1" height="3" fill="#CEC4CD" />
<rect x="37" y="26" width="1" height="2" fill="#93879C" />
<rect x="38" y="26" width="1" height="3" fill="#583322" />
<rect x="39" y="26" width="1" height="2" fill="#93879C" />
<rect x="44" y="26" width="1" height="7" fill="#93879C" />
<rect x="45" y="26" width="1" height="1" fill="#4C3B4A" />
<rect x="46" y="26" width="1" height="1" fill="#2E092A" />
<rect x="16" y="27" width="1" height="32" fill="#2E092A" />
<rect x="17" y="27" width="1" height="32" fill="#4C3B4A" />
<rect x="18" y="27" width="1" height="8" fill="#93879C" />
<rect x="22" y="27" width="1" height="2" fill="#CEC4CD" />
<rect x="25" y="27" width="1" height="1" fill="#DDD6DC" />
<rect x="40" y="27" width="1" height="1" fill="#93879C" />
<rect x="45" y="27" width="1" height="8" fill="#93879C" />
<rect x="46" y="27" width="1" height="32" fill="#4C3B4A" />
<rect x="47" y="27" width="1" height="32" fill="#2E092A" />
<rect x="21" y="28" width="1" height="1" fill="#CEC4CD" />
<rect x="24" y="28" width="1" height="1" fill="#DDD6DC" />
<rect x="25" y="28" width="1" height="1" fill="#CEC4CD" />
<rect x="36" y="28" width="2" height="1" fill="#583322" />
<rect x="39" y="28" width="3" height="1" fill="#583322" />
<rect x="20" y="29" width="1" height="1" fill="#CEC4CD" />
<rect x="21" y="29" width="3" height="1" fill="#DDD6DC" />
<rect x="24" y="29" width="1" height="1" fill="#CEC4CD" />
<rect x="25" y="29" width="1" height="3" fill="#93879C" />
<rect x="36" y="29" width="1" height="5" fill="#583322" />
<rect x="37" y="29" width="4" height="1" fill="#EEC39A" />
<rect x="41" y="29" width="2" height="1" fill="#583322" />
<rect x="20" y="30" width="1" height="4" fill="#93879C" />
<rect x="21" y="30" width="3" height="3" fill="#AFA4B4" />
<rect x="24" y="30" width="1" height="2" fill="#93879C" />
<rect x="37" y="30" width="2" height="1" fill="#EEC39A" />
<rect x="39" y="30" width="2" height="1" fill="#8F563B" />
<rect x="41" y="30" width="1" height="2" fill="#EEC39A" />
<rect x="42" y="30" width="1" height="2" fill="#583322" />
<rect x="37" y="31" width="1" height="2" fill="#EEC39A" />
<rect x="38" y="31" width="1" height="1" fill="#8F563B" />
<rect x="39" y="31" width="2" height="1" fill="#EEC39A" />
<rect x="43" y="31" width="1" height="3" fill="#583322" />
<rect x="24" y="32" width="12" height="1" fill="#500E0E" />
<rect x="38" y="32" width="1" height="4" fill="#EEC39A" />
<rect x="39" y="32" width="1" height="1" fill="#8F563B" />
<rect x="40" y="32" width="1" height="2" fill="#EEC39A" />
<rect x="41" y="32" width="1" height="1" fill="#8F563B" />
<rect x="42" y="32" width="1" height="4" fill="#EEC39A" />
<rect x="21" y="33" width="1" height="1" fill="#AFA4B4" />
<rect x="22" y="33" width="2" height="1" fill="#8D676B" />
<rect x="24" y="33" width="1" height="1" fill="#500E0E" />
<rect x="25" y="33" width="11" height="6" fill="#8D2828" />
<rect x="37" y="33" width="1" height="4" fill="#583322" />
<rect x="39" y="33" width="1" height="5" fill="#EEC39A" />
<rect x="41" y="33" width="1" height="1" fill="#EEC39A" />
<rect x="44" y="33" width="1" height="3" fill="#583322" />
<rect x="20" y="34" width="1" height="2" fill="#500E0E" />
<rect x="21" y="34" width="2" height="1" fill="#8D676B" />
<rect x="23" y="34" width="1" height="4" fill="#AC7478" />
<rect x="24" y="34" width="1" height="4" fill="#8D2828" />
<rect x="36" y="34" width="1" height="5" fill="#8D2828" />
<rect x="40" y="34" width="2" height="1" fill="#8F563B" />
<rect x="43" y="34" width="1" height="4" fill="#EEC39A" />
<rect x="18" y="35" width="2" height="1" fill="#500E0E" />
<rect x="21" y="35" width="2" height="3" fill="#AC7478" />
<rect x="40" y="35" width="2" height="1" fill="#EEC39A" />
<rect x="45" y="35" width="1" height="3" fill="#583322" />
<rect x="18" y="36" width="1" height="23" fill="#500E0E" />
<rect x="19" y="36" width="2" height="1" fill="#8D2828" />
<rect x="38" y="36" width="1" height="3" fill="#583322" />
<rect x="40" y="36" width="3" height="1" fill="#8F563B" />
<rect x="44" y="36" width="1" height="1" fill="#EEC39A" />
<rect x="19" y="37" width="2" height="1" fill="#B77373" />
<rect x="37" y="37" width="1" height="2" fill="#8D2828" />
<rect x="40" y="37" width="3" height="1" fill="#EEC39A" />
<rect x="44" y="37" width="1" height="2" fill="#583322" />
<rect x="19" y="38" width="2" height="20" fill="#721A1A" />
<rect x="21" y="38" width="3" height="1" fill="#C29A9F" />
<rect x="24" y="38" width="1" height="1" fill="#B77373" />
<rect x="39" y="38" width="1" height="2" fill="#583322" />
<rect x="40" y="38" width="1" height="1" fill="#EEC39A" />
<rect x="41" y="38" width="3" height="1" fill="#583322" />
<rect x="45" y="38" width="1" height="21" fill="#500E0E" />
<rect x="21" y="39" width="3" height="16" fill="#9F6D71" />
<rect x="24" y="39" width="1" height="20" fill="#721A1A" />
<rect x="25" y="39" width="14" height="1" fill="#B77373" />
<rect x="40" y="39" width="2" height="1" fill="#583322" />
<rect x="42" y="39" width="2" height="1" fill="#B77373" />
<rect x="44" y="39" width="1" height="19" fill="#721A1A" />
<rect x="25" y="40" width="11" height="19" fill="#721A1A" />
<rect x="36" y="40" width="4" height="1" fill="#671919" />
<rect x="40" y="40" width="4" height="5" fill="#721A1A" />
<rect x="36" y="41" width="1" height="19" fill="#721A1A" />
<rect x="37" y="41" width="3" height="1" fill="#671919" />
<rect x="37" y="42" width="1" height="18" fill="#721A1A" />
<rect x="38" y="42" width="2" height="5" fill="#671919" />
<rect x="40" y="45" width="1" height="14" fill="#671919" />
<rect x="41" y="45" width="3" height="3" fill="#721A1A" />
<rect x="38" y="47" width="1" height="11" fill="#721A1A" />
<rect x="39" y="47" width="1" height="12" fill="#671919" />
<rect x="41" y="48" width="1" height="11" fill="#671919" />
<rect x="42" y="48" width="2" height="10" fill="#721A1A" />
<rect x="21" y="55" width="1" height="4" fill="#721A1A" />
<rect x="22" y="55" width="2" height="1" fill="#9F6D71" />
<rect x="22" y="56" width="1" height="3" fill="#721A1A" />
<rect x="23" y="56" width="1" height="1" fill="#9F6D71" />
<rect x="23" y="57" width="1" height="2" fill="#721A1A" />
<rect x="19" y="58" width="2" height="1" fill="#500E0E" />
<rect x="38" y="58" width="1" height="1" fill="#671919" />
<rect x="42" y="58" width="1" height="1" fill="#721A1A" />
<rect x="43" y="58" width="2" height="1" fill="#500E0E" />
<rect x="17" y="59" width="1" height="1" fill="#2E092A" />
<rect x="18" y="59" width="2" height="1" fill="#4C3B4A" />
<rect x="20" y="59" width="6" height="1" fill="#500E0E" />
<rect x="26" y="59" width="10" height="1" fill="#721A1A" />
<rect x="38" y="59" width="6" height="1" fill="#500E0E" />
<rect x="44" y="59" width="2" height="1" fill="#4C3B4A" />
<rect x="46" y="59" width="1" height="1" fill="#2E092A" />
<rect x="18" y="60" width="2" height="1" fill="#2E092A" />
<rect x="20" y="60" width="5" height="1" fill="#4C3B4A" />
<rect x="25" y="60" width="14" height="1" fill="#500E0E" />
<rect x="39" y="60" width="5" height="1" fill="#4C3B4A" />
<rect x="44" y="60" width="2" height="1" fill="#2E092A" />
<rect x="20" y="61" width="5" height="1" fill="#2E092A" />
<rect x="25" y="61" width="14" height="1" fill="#4C3B4A" />
<rect x="39" y="61" width="5" height="1" fill="#2E092A" />
<rect x="25" y="62" width="14" height="1" fill="#2E092A" />
</svg>