<?xml version="1.0" encoding="UTF-8" ?>
<svg version="1.1" width="64" height="64" xmlns="http://www.w3.org/2000/svg" shape-rendering="crispEdges">
<filter id="outline"><feComponentTransfer in="SourceGraphic" result="solid"><feFuncA type="linear" slope="15" intercept="0"/></feComponentTransfer><feMorphology in="solid" result="dilated" operator="dilate" radius="1"/><feFlood flood-color="#ffffff" result="flood"/><feComposite in="flood" in2="dilated" operator="in" result="stroke"/><feMerge><feMergeNode in="stroke"/><feMergeNode in="solid"/></feMerge></filter>
<g filter="url(#outline)">
<rect x="51" y="5" width="2" height="1" fill="#721A1A" />
<rect x="52" y="6" width="1" height="1" fill="#721A1A" />
<rect x="53" y="7" width="1" height="6" fill="#721A1A" />
<rect x="51" y="13" width="2" height="1" fill="#721A1A" />
<rect x="23" y="14" width="12" height="1" fill="#721A1A" />
<rect x="48" y="14" width="4" height="1" fill="#721A1A" />
<rect x="11" y="15" width="5" height="1" fill="#343535" />
<rect x="19" y="15" width="4" height="1" fill="#721A1A" />
<rect x="34" y="15" width="15" height="1" fill="#721A1A" />
<rect x="10" y="16" width="1" height="1" fill="#343535" />
<rect x="11" y="16" width="5" height="1" fill="#707272" />
<rect x="16" y="16" width="1" height="1" fill="#343535" />
<rect x="18" y="16" width="2" height="1" fill="#721A1A" />
<rect x="9" y="17" width="1" height="5" fill="#343535" />
<rect x="10" y="17" width="2" height="1" fill="#707272" />
<rect x="12" y="17" width="3" height="1" fill="#343535" />
<rect x="15" y="17" width="2" height="1" fill="#707272" />
<rect x="17" y="17" width="2" height="1" fill="#721A1A" />
<rect x="10" y="18" width="1" height="1" fill="#707272" />
<rect x="11" y="18" width="1" height="3" fill="#343535" />
<rect x="15" y="18" width="1" height="1" fill="#343535" />
<rect x="16" y="18" width="1" height="2" fill="#721A1A" />
<rect x="17" y="18" width="1" height="2" fill="#707272" />
<rect x="18" y="18" width="1" height="1" fill="#343535" />
<rect x="10" y="19" width="1" height="3" fill="#525354" />
<rect x="15" y="19" width="1" height="3" fill="#721A1A" />
<rect x="18" y="19" width="1" height="2" fill="#707272" />
<rect x="19" y="19" width="1" height="1" fill="#343535" />
<rect x="17" y="20" width="1" height="1" fill="#343535" />
<rect x="19" y="20" width="1" height="3" fill="#707272" />
<rect x="20" y="20" width="1" height="1" fill="#343535" />
<rect x="11" y="21" width="1" height="1" fill="#707272" />
<rect x="12" y="21" width="1" height="1" fill="#343535" />
<rect x="14" y="21" width="1" height="2" fill="#721A1A" />
<rect x="18" y="21" width="1" height="2" fill="#343535" />
<rect x="20" y="21" width="1" height="4" fill="#707272" />
<rect x="21" y="21" width="1" height="1" fill="#343535" />
<rect x="10" y="22" width="1" height="1" fill="#343535" />
<rect x="11" y="22" width="1" height="1" fill="#525354" />
<rect x="12" y="22" width="1" height="1" fill="#707272" />
<rect x="13" y="22" width="1" height="1" fill="#343535" />
<rect x="21" y="22" width="1" height="4" fill="#707272" />
<rect x="22" y="22" width="1" height="1" fill="#343535" />
<rect x="11" y="23" width="1" height="1" fill="#343535" />
<rect x="12" y="23" width="2" height="1" fill="#525354" />
<rect x="14" y="23" width="2" height="1" fill="#343535" />
<rect x="19" y="23" width="1" height="2" fill="#343535" />
<rect x="22" y="23" width="1" height="4" fill="#707272" />
<rect x="23" y="23" width="1" height="1" fill="#343535" />
<rect x="12" y="24" width="2" height="1" fill="#343535" />
<rect x="14" y="24" width="1" height="1" fill="#525354" />
<rect x="15" y="24" width="1" height="1" fill="#707272" />
<rect x="16" y="24" width="1" height="1" fill="#343535" />
<rect x="23" y="24" width="1" height="4" fill="#707272" />
<rect x="24" y="24" width="1" height="1" fill="#343535" />
<rect x="12" y="25" width="1" height="1" fill="#721A1A" />
<rect x="14" y="25" width="1" height="1" fill="#343535" />
<rect x="15" y="25" width="1" height="1" fill="#525354" />
<rect x="16" y="25" width="1" height="1" fill="#707272" />
<rect x="17" y="25" width="2" height="1" fill="#343535" />
<rect x="19" y="25" width="2" height="1" fill="#9EA1A1" />
<rect x="24" y="25" width="1" height="3" fill="#707272" />
<rect x="25" y="25" width="1" height="1" fill="#343535" />
<rect x="11" y="26" width="1" height="3" fill="#721A1A" />
<rect x="15" y="26" width="1" height="1" fill="#343535" />
<rect x="16" y="26" width="2" height="1" fill="#525354" />
<rect x="18" y="26" width="2" height="1" fill="#707272" />
<rect x="20" y="26" width="2" height="1" fill="#9EA1A1" />
<rect x="25" y="26" width="1" height="3" fill="#707272" />
<rect x="26" y="26" width="1" height="1" fill="#343535" />
<rect x="16" y="27" width="2" height="1" fill="#343535" />
<rect x="18" y="27" width="2" height="1" fill="#525354" />
<rect x="20" y="27" width="1" height="2" fill="#707272" />
<rect x="21" y="27" width="2" height="1" fill="#9EA1A1" />
<rect x="26" y="27" width="1" height="3" fill="#707272" />
<rect x="27" y="27" width="1" height="1" fill="#343535" />
<rect x="10" y="28" width="1" height="4" fill="#721A1A" />
<rect x="18" y="28" width="1" height="1" fill="#343535" />
<rect x="19" y="28" width="1" height="1" fill="#525354" />
<rect x="21" y="28" width="1" height="1" fill="#707272" />
<rect x="22" y="28" width="3" height="1" fill="#9EA1A1" />
<rect x="27" y="28" width="1" height="3" fill="#707272" />
<rect x="28" y="28" width="1" height="1" fill="#343535" />
<rect x="19" y="29" width="1" height="1" fill="#343535" />
<rect x="20" y="29" width="2" height="1" fill="#525354" />
<rect x="22" y="29" width="2" height="1" fill="#707272" />
<rect x="24" y="29" width="2" height="1" fill="#9EA1A1" />
<rect x="28" y="29" width="1" height="3" fill="#707272" />
<rect x="29" y="29" width="1" height="1" fill="#343535" />
<rect x="20" y="30" width="2" height="1" fill="#343535" />
<rect x="22" y="30" width="2" height="1" fill="#525354" />
<rect x="24" y="30" width="1" height="2" fill="#707272" />
<rect x="25" y="30" width="2" height="1" fill="#9EA1A1" />
<rect x="29" y="30" width="1" height="3" fill="#707272" />
<rect x="30" y="30" width="1" height="1" fill="#343535" />
<rect x="9" y="31" width="1" height="7" fill="#721A1A" />
<rect x="22" y="31" width="1" height="1" fill="#343535" />
<rect x="23" y="31" width="1" height="1" fill="#525354" />
<rect x="25" y="31" width="1" height="1" fill="#707272" />
<rect x="26" y="31" width="2" height="1" fill="#9EA1A1" />
<rect x="30" y="31" width="1" height="3" fill="#707272" />
<rect x="31" y="31" width="1" height="1" fill="#343535" />
<rect x="23" y="32" width="1" height="1" fill="#343535" />
<rect x="24" y="32" width="2" height="1" fill="#525354" />
<rect x="26" y="32" width="1" height="1" fill="#707272" />
<rect x="27" y="32" width="2" height="1" fill="#9EA1A1" />
<rect x="31" y="32" width="1" height="2" fill="#707272" />
<rect x="32" y="32" width="1" height="1" fill="#343535" />
<rect x="24" y="33" width="2" height="1" fill="#343535" />
<rect x="26" y="33" width="2" height="1" fill="#525354" />
<rect x="28" y="33" width="2" height="1" fill="#9EA1A1" />
<rect x="32" y="33" width="1" height="2" fill="#707272" />
<rect x="33" y="33" width="1" height="1" fill="#343535" />
<rect x="26" y="34" width="1" height="1" fill="#343535" />
<rect x="27" y="34" width="1" height="1" fill="#525354" />
<rect x="28" y="34" width="1" height="1" fill="#707272" />
<rect x="29" y="34" width="3" height="1" fill="#9EA1A1" />
<rect x="33" y="34" width="1" height="2" fill="#707272" />
<rect x="34" y="34" width="1" height="1" fill="#343535" />
<rect x="27" y="35" width="1" height="1" fill="#343535" />
<rect x="28" y="35" width="2" height="1" fill="#525354" />
<rect x="30" y="35" width="1" height="1" fill="#707272" />
<rect x="31" y="35" width="2" height="1" fill="#9EA1A1" />
<rect x="34" y="35" width="1" height="2" fill="#707272" />
<rect x="35" y="35" width="1" height="1" fill="#343535" />
<rect x="28" y="36" width="2" height="1" fill="#343535" />
<rect x="30" y="36" width="2" height="1" fill="#525354" />
<rect x="32" y="36" width="2" height="1" fill="#9EA1A1" />
<rect x="35" y="36" width="1" height="2" fill="#707272" />
<rect x="36" y="36" width="1" height="1" fill="#343535" />
<rect x="10" y="37" width="1" height="2" fill="#721A1A" />
<rect x="30" y="37" width="1" height="1" fill="#343535" />
<rect x="31" y="37" width="1" height="1" fill="#525354" />
<rect x="32" y="37" width="2" height="1" fill="#707272" />
<rect x="34" y="37" width="1" height="1" fill="#9EA1A1" />
<rect x="36" y="37" width="1" height="2" fill="#707272" />
<rect x="37" y="37" width="1" height="1" fill="#343535" />
<rect x="11" y="38" width="1" height="2" fill="#721A1A" />
<rect x="31" y="38" width="1" height="1" fill="#343535" />
<rect x="32" y="38" width="2" height="1" fill="#525354" />
<rect x="34" y="38" width="1" height="1" fill="#707272" />
<rect x="35" y="38" width="1" height="1" fill="#9EA1A1" />
<rect x="37" y="38" width="1" height="2" fill="#707272" />
<rect x="38" y="38" width="1" height="1" fill="#343535" />
<rect x="12" y="39" width="2" height="1" fill="#721A1A" />
<rect x="32" y="39" width="2" height="1" fill="#343535" />
<rect x="34" y="39" width="1" height="1" fill="#525354" />
<rect x="35" y="39" width="1" height="1" fill="#707272" />
<rect x="36" y="39" width="1" height="1" fill="#9EA1A1" />
<rect x="38" y="39" width="1" height="1" fill="#707272" />
<rect x="39" y="39" width="1" height="1" fill="#343535" />
<rect x="13" y="40" width="3" height="1" fill="#721A1A" />
<rect x="34" y="40" width="1" height="1" fill="#343535" />
<rect x="35" y="40" width="1" height="1" fill="#525354" />
<rect x="36" y="40" width="1" height="1" fill="#707272" />
<rect x="37" y="40" width="2" height="1" fill="#9EA1A1" />
<rect x="39" y="40" width="1" height="1" fill="#707272" />
<rect x="40" y="40" width="1" height="1" fill="#343535" />
<rect x="16" y="41" width="3" height="1" fill="#721A1A" />
<rect x="35" y="41" width="1" height="1" fill="#343535" />
<rect x="36" y="41" width="1" height="1" fill="#525354" />
<rect x="37" y="41" width="2" height="1" fill="#707272" />
<rect x="39" y="41" width="1" height="1" fill="#9EA1A1" />
<rect x="40" y="41" width="1" height="1" fill="#707272" />
<rect x="41" y="41" width="1" height="1" fill="#343535" />
<rect x="18" y="42" width="3" height="1" fill="#721A1A" />
<rect x="36" y="42" width="1" height="1" fill="#343535" />
<rect x="37" y="42" width="2" height="1" fill="#525354" />
<rect x="39" y="42" width="1" height="1" fill="#707272" />
<rect x="40" y="42" width="1" height="1" fill="#9EA1A1" />
<rect x="41" y="42" width="1" height="1" fill="#707272" />
<rect x="42" y="42" width="1" height="1" fill="#343535" />
<rect x="21" y="43" width="2" height="1" fill="#721A1A" />
<rect x="37" y="43" width="2" height="1" fill="#343535" />
<rect x="39" y="43" width="1" height="1" fill="#525354" />
<rect x="40" y="43" width="1" height="1" fill="#707272" />
<rect x="41" y="43" width="1" height="1" fill="#9EA1A1" />
<rect x="42" y="43" width="1" height="1" fill="#707272" />
<rect x="43" y="43" width="1" height="1" fill="#343535" />
<rect x="23" y="44" width="1" height="2" fill="#721A1A" />
<rect x="39" y="44" width="1" height="1" fill="#343535" />
<rect x="40" y="44" width="1" height="1" fill="#525354" />
<rect x="41" y="44" width="1" height="1" fill="#707272" />
<rect x="42" y="44" width="1" height="1" fill="#9EA1A1" />
<rect x="43" y="44" width="1" height="1" fill="#707272" />
<rect x="44" y="44" width="1" height="1" fill="#343535" />
<rect x="24" y="45" width="1" height="3" fill="#721A1A" />
<rect x="40" y="45" width="1" height="1" fill="#343535" />
<rect x="41" y="45" width="1" height="1" fill="#525354" />
<rect x="42" y="45" width="1" height="1" fill="#707272" />
<rect x="43" y="45" width="2" height="1" fill="#9EA1A1" />
<rect x="45" y="45" width="1" height="1" fill="#343535" />
<rect x="41" y="46" width="2" height="1" fill="#343535" />
<rect x="43" y="46" width="2" height="1" fill="#707272" />
<rect x="45" y="46" width="1" height="1" fill="#9EA1A1" />
<rect x="46" y="46" width="1" height="1" fill="#343535" />
<rect x="25" y="47" width="1" height="3" fill="#721A1A" />
<rect x="43" y="47" width="1" height="1" fill="#343535" />
<rect x="44" y="47" width="1" height="1" fill="#525354" />
<rect x="45" y="47" width="1" height="1" fill="#707272" />
<rect x="46" y="47" width="1" height="1" fill="#9EA1A1" />
<rect x="47" y="47" width="1" height="1" fill="#343535" />
<rect x="44" y="48" width="1" height="1" fill="#343535" />
<rect x="45" y="48" width="1" height="1" fill="#525354" />
<rect x="46" y="48" width="2" height="1" fill="#707272" />
<rect x="48" y="48" width="1" height="1" fill="#343535" />
<rect x="24" y="49" width="1" height="2" fill="#721A1A" />
<rect x="45" y="49" width="2" height="1" fill="#343535" />
<rect x="47" y="49" width="1" height="1" fill="#525354" />
<rect x="48" y="49" width="1" height="1" fill="#707272" />
<rect x="49" y="49" width="1" height="1" fill="#343535" />
<rect x="23" y="50" width="1" height="1" fill="#721A1A" />
<rect x="47" y="50" width="1" height="1" fill="#343535" />
<rect x="48" y="50" width="1" height="1" fill="#525354" />
<rect x="49" y="50" width="1" height="1" fill="#707272" />
<rect x="50" y="50" width="1" height="1" fill="#343535" />
<rect x="19" y="51" width="4" height="1" fill="#721A1A" />
<rect x="48" y="51" width="1" height="1" fill="#343535" />
<rect x="49" y="51" width="2" height="1" fill="#525354" />
<rect x="51" y="51" width="1" height="1" fill="#343535" />
<rect x="8" y="52" width="11" height="1" fill="#721A1A" />
<rect x="49" y="52" width="2" height="1" fill="#343535" />
<rect x="51" y="52" width="1" height="1" fill="#525354" />
<rect x="52" y="52" width="1" height="1" fill="#343535" />
<rect x="7" y="53" width="1" height="4" fill="#721A1A" />
<rect x="51" y="53" width="1" height="1" fill="#343535" />
<rect x="52" y="53" width="1" height="1" fill="#525354" />
<rect x="53" y="53" width="1" height="1" fill="#343535" />
<rect x="52" y="54" width="1" height="1" fill="#343535" />
<rect x="53" y="54" width="1" height="1" fill="#525354" />
<rect x="54" y="54" width="1" height="2" fill="#343535" />
<rect x="53" y="55" width="1" height="1" fill="#343535" />
<rect x="55" y="55" width="1" height="2" fill="#343535" />
<rect x="8" y="56" width="1" height="2" fill="#721A1A" />
<rect x="56" y="56" width="1" height="2" fill="#343535" />
<rect x="9" y="57" width="2" height="1" fill="#721A1A" />
<rect x="18" y="57" width="2" height="1" fill="#721A1A" />
<rect x="57" y="57" width="1" height="1" fill="#343535" />
<rect x="10" y="58" width="9" height="1" fill="#721A1A" />
<rect x="58" y="58" width="1" height="1" fill="#343535" />
</g>
</svg>
