<?xml version="1.0" encoding="UTF-8" ?>
<svg version="1.1" width="64" height="64" xmlns="http://www.w3.org/2000/svg" shape-rendering="crispEdges">
<filter id="outline"><feMorphology in="SourceAlpha" result="dilated" operator="dilate" radius="1"/><feFlood flood-color="#ffffff" result="flood"/><feComposite in="flood" in2="dilated" operator="in" result="stroke"/><feMerge><feMergeNode in="stroke"/><feMergeNode in="SourceGraphic"/></feMerge></filter>
<g filter="url(#outline)">
<rect x="15" y="2" width="7" height="1" fill="#343535" />
<rect x="14" y="3" width="1" height="1" fill="#343535" />
<rect x="15" y="3" width="7" height="2" fill="#707272" />
<rect x="22" y="3" width="1" height="1" fill="#343535" />
<rect x="13" y="4" width="1" height="6" fill="#343535" />
<rect x="14" y="4" width="1" height="6" fill="#707272" />
<rect x="22" y="4" width="1" height="1" fill="#9EA1A1" />
<rect x="23" y="4" width="1" height="1" fill="#343535" />
<rect x="15" y="5" width="2" height="1" fill="#707272" />
<rect x="17" y="5" width="4" height="1" fill="#343535" />
<rect x="21" y="5" width="2" height="1" fill="#707272" />
<rect x="23" y="5" width="1" height="1" fill="#9EA1A1" />
<rect x="24" y="5" width="1" height="1" fill="#343535" />
<rect x="15" y="6" width="1" height="5" fill="#707272" />
<rect x="16" y="6" width="1" height="3" fill="#343535" />
<rect x="21" y="6" width="1" height="1" fill="#343535" />
<rect x="22" y="6" width="2" height="1" fill="#707272" />
<rect x="24" y="6" width="1" height="1" fill="#9EA1A1" />
<rect x="25" y="6" width="1" height="1" fill="#343535" />
<rect x="22" y="7" width="1" height="1" fill="#343535" />
<rect x="23" y="7" width="2" height="1" fill="#707272" />
<rect x="25" y="7" width="1" height="1" fill="#9EA1A1" />
<rect x="26" y="7" width="1" height="1" fill="#343535" />
<rect x="23" y="8" width="1" height="1" fill="#343535" />
<rect x="24" y="8" width="2" height="1" fill="#707272" />
<rect x="26" y="8" width="1" height="1" fill="#9EA1A1" />
<rect x="27" y="8" width="1" height="1" fill="#343535" />
<rect x="16" y="9" width="1" height="1" fill="#707272" />
<rect x="17" y="9" width="1" height="1" fill="#343535" />
<rect x="24" y="9" width="1" height="1" fill="#343535" />
<rect x="25" y="9" width="2" height="1" fill="#707272" />
<rect x="27" y="9" width="1" height="2" fill="#9EA1A1" />
<rect x="28" y="9" width="1" height="2" fill="#343535" />
<rect x="14" y="10" width="1" height="1" fill="#343535" />
<rect x="16" y="10" width="1" height="1" fill="#9EA1A1" />
<rect x="17" y="10" width="1" height="1" fill="#636363" />
<rect x="18" y="10" width="1" height="1" fill="#343535" />
<rect x="25" y="10" width="1" height="1" fill="#343535" />
<rect x="26" y="10" width="1" height="1" fill="#707272" />
<rect x="15" y="11" width="1" height="2" fill="#343535" />
<rect x="16" y="11" width="1" height="2" fill="#707272" />
<rect x="17" y="11" width="1" height="1" fill="#9EA1A1" />
<rect x="18" y="11" width="1" height="1" fill="#636363" />
<rect x="19" y="11" width="1" height="1" fill="#343535" />
<rect x="26" y="11" width="1" height="4" fill="#343535" />
<rect x="27" y="11" width="1" height="4" fill="#707272" />
<rect x="28" y="11" width="1" height="2" fill="#9EA1A1" />
<rect x="29" y="11" width="1" height="2" fill="#343535" />
<rect x="17" y="12" width="1" height="2" fill="#707272" />
<rect x="18" y="12" width="1" height="1" fill="#9EA1A1" />
<rect x="19" y="12" width="1" height="2" fill="#636363" />
<rect x="20" y="12" width="1" height="2" fill="#343535" />
<rect x="16" y="13" width="1" height="1" fill="#343535" />
<rect x="18" y="13" width="1" height="2" fill="#707272" />
<rect x="28" y="13" width="1" height="2" fill="#707272" />
<rect x="29" y="13" width="1" height="2" fill="#9EA1A1" />
<rect x="30" y="13" width="1" height="6" fill="#343535" />
<rect x="3" y="14" width="6" height="1" fill="#343535" />
<rect x="17" y="14" width="1" height="1" fill="#343535" />
<rect x="19" y="14" width="1" height="1" fill="#9EA1A1" />
<rect x="20" y="14" width="1" height="1" fill="#636363" />
<rect x="21" y="14" width="1" height="1" fill="#343535" />
<rect x="2" y="15" width="1" height="1" fill="#343535" />
<rect x="3" y="15" width="6" height="2" fill="#707272" />
<rect x="9" y="15" width="2" height="1" fill="#343535" />
<rect x="18" y="15" width="1" height="1" fill="#343535" />
<rect x="19" y="15" width="1" height="1" fill="#707272" />
<rect x="20" y="15" width="1" height="1" fill="#9EA1A1" />
<rect x="21" y="15" width="1" height="1" fill="#636363" />
<rect x="22" y="15" width="1" height="2" fill="#343535" />
<rect x="27" y="15" width="1" height="3" fill="#343535" />
<rect x="28" y="15" width="1" height="4" fill="#9EA1A1" />
<rect x="29" y="15" width="1" height="3" fill="#707272" />
<rect x="1" y="16" width="1" height="7" fill="#343535" />
<rect x="2" y="16" width="1" height="6" fill="#707272" />
<rect x="9" y="16" width="1" height="1" fill="#707272" />
<rect x="10" y="16" width="1" height="1" fill="#636363" />
<rect x="11" y="16" width="1" height="1" fill="#343535" />
<rect x="19" y="16" width="1" height="1" fill="#343535" />
<rect x="20" y="16" width="1" height="1" fill="#707272" />
<rect x="21" y="16" width="1" height="1" fill="#9EA1A1" />
<rect x="3" y="17" width="2" height="1" fill="#707272" />
<rect x="5" y="17" width="4" height="1" fill="#343535" />
<rect x="9" y="17" width="2" height="1" fill="#9EA1A1" />
<rect x="11" y="17" width="1" height="1" fill="#636363" />
<rect x="12" y="17" width="2" height="1" fill="#343535" />
<rect x="20" y="17" width="1" height="2" fill="#343535" />
<rect x="21" y="17" width="1" height="2" fill="#707272" />
<rect x="22" y="17" width="1" height="1" fill="#636363" />
<rect x="23" y="17" width="1" height="1" fill="#343535" />
<rect x="3" y="18" width="1" height="5" fill="#707272" />
<rect x="4" y="18" width="1" height="3" fill="#343535" />
<rect x="9" y="18" width="1" height="1" fill="#343535" />
<rect x="10" y="18" width="1" height="1" fill="#707272" />
<rect x="11" y="18" width="1" height="1" fill="#9EA1A1" />
<rect x="12" y="18" width="2" height="1" fill="#636363" />
<rect x="14" y="18" width="1" height="1" fill="#343535" />
<rect x="22" y="18" width="1" height="2" fill="#707272" />
<rect x="23" y="18" width="1" height="3" fill="#9EA1A1" />
<rect x="24" y="18" width="3" height="1" fill="#343535" />
<rect x="27" y="18" width="1" height="2" fill="#707272" />
<rect x="29" y="18" width="1" height="1" fill="#636363" />
<rect x="10" y="19" width="2" height="1" fill="#343535" />
<rect x="12" y="19" width="1" height="1" fill="#9EA1A1" />
<rect x="13" y="19" width="1" height="1" fill="#707272" />
<rect x="14" y="19" width="1" height="1" fill="#636363" />
<rect x="15" y="19" width="1" height="1" fill="#343535" />
<rect x="21" y="19" width="1" height="1" fill="#343535" />
<rect x="24" y="19" width="3" height="2" fill="#707272" />
<rect x="28" y="19" width="1" height="1" fill="#636363" />
<rect x="29" y="19" width="1" height="1" fill="#343535" />
<rect x="12" y="20" width="1" height="1" fill="#343535" />
<rect x="13" y="20" width="1" height="1" fill="#9EA1A1" />
<rect x="14" y="20" width="1" height="1" fill="#707272" />
<rect x="15" y="20" width="1" height="1" fill="#636363" />
<rect x="16" y="20" width="1" height="1" fill="#343535" />
<rect x="22" y="20" width="1" height="1" fill="#343535" />
<rect x="27" y="20" width="1" height="2" fill="#636363" />
<rect x="28" y="20" width="1" height="2" fill="#343535" />
<rect x="4" y="21" width="1" height="3" fill="#707272" />
<rect x="5" y="21" width="1" height="1" fill="#343535" />
<rect x="13" y="21" width="1" height="1" fill="#343535" />
<rect x="14" y="21" width="1" height="1" fill="#9EA1A1" />
<rect x="15" y="21" width="1" height="1" fill="#707272" />
<rect x="16" y="21" width="1" height="1" fill="#636363" />
<rect x="17" y="21" width="1" height="1" fill="#343535" />
<rect x="23" y="21" width="1" height="2" fill="#343535" />
<rect x="24" y="21" width="3" height="1" fill="#636363" />
<rect x="2" y="22" width="1" height="1" fill="#636363" />
<rect x="5" y="22" width="1" height="1" fill="#636363" />
<rect x="6" y="22" width="1" height="1" fill="#343535" />
<rect x="14" y="22" width="1" height="1" fill="#343535" />
<rect x="15" y="22" width="1" height="1" fill="#9EA1A1" />
<rect x="16" y="22" width="1" height="1" fill="#707272" />
<rect x="17" y="22" width="1" height="1" fill="#636363" />
<rect x="18" y="22" width="1" height="1" fill="#343535" />
<rect x="22" y="22" width="1" height="1" fill="#343535" />
<rect x="24" y="22" width="4" height="1" fill="#343535" />
<rect x="2" y="23" width="1" height="1" fill="#343535" />
<rect x="3" y="23" width="1" height="1" fill="#636363" />
<rect x="5" y="23" width="1" height="2" fill="#707272" />
<rect x="6" y="23" width="1" height="1" fill="#636363" />
<rect x="7" y="23" width="1" height="1" fill="#343535" />
<rect x="15" y="23" width="1" height="1" fill="#343535" />
<rect x="16" y="23" width="1" height="1" fill="#9EA1A1" />
<rect x="17" y="23" width="1" height="1" fill="#707272" />
<rect x="18" y="23" width="1" height="1" fill="#636363" />
<rect x="19" y="23" width="1" height="1" fill="#343535" />
<rect x="21" y="23" width="1" height="1" fill="#343535" />
<rect x="22" y="23" width="2" height="1" fill="#636363" />
<rect x="24" y="23" width="1" height="3" fill="#707272" />
<rect x="25" y="23" width="3" height="1" fill="#636363" />
<rect x="28" y="23" width="1" height="1" fill="#343535" />
<rect x="3" y="24" width="1" height="1" fill="#343535" />
<rect x="4" y="24" width="1" height="1" fill="#636363" />
<rect x="6" y="24" width="1" height="2" fill="#707272" />
<rect x="7" y="24" width="1" height="1" fill="#636363" />
<rect x="8" y="24" width="1" height="1" fill="#343535" />
<rect x="16" y="24" width="1" height="1" fill="#343535" />
<rect x="17" y="24" width="1" height="1" fill="#9EA1A1" />
<rect x="18" y="24" width="1" height="5" fill="#707272" />
<rect x="19" y="24" width="1" height="1" fill="#636363" />
<rect x="20" y="24" width="1" height="1" fill="#343535" />
<rect x="21" y="24" width="2" height="1" fill="#636363" />
<rect x="23" y="24" width="1" height="6" fill="#707272" />
<rect x="25" y="24" width="4" height="1" fill="#707272" />
<rect x="29" y="24" width="1" height="1" fill="#343535" />
<rect x="4" y="25" width="1" height="1" fill="#343535" />
<rect x="5" y="25" width="1" height="1" fill="#9EA1A1" />
<rect x="7" y="25" width="1" height="2" fill="#707272" />
<rect x="8" y="25" width="1" height="1" fill="#636363" />
<rect x="9" y="25" width="1" height="1" fill="#343535" />
<rect x="17" y="25" width="1" height="2" fill="#343535" />
<rect x="19" y="25" width="4" height="4" fill="#707272" />
<rect x="25" y="25" width="2" height="1" fill="#343535" />
<rect x="27" y="25" width="3" height="1" fill="#707272" />
<rect x="30" y="25" width="3" height="1" fill="#343535" />
<rect x="5" y="26" width="1" height="1" fill="#343535" />
<rect x="6" y="26" width="1" height="1" fill="#9EA1A1" />
<rect x="8" y="26" width="1" height="2" fill="#707272" />
<rect x="9" y="26" width="1" height="1" fill="#636363" />
<rect x="10" y="26" width="1" height="1" fill="#343535" />
<rect x="24" y="26" width="1" height="2" fill="#343535" />
<rect x="25" y="26" width="1" height="1" fill="#707272" />
<rect x="26" y="26" width="1" height="1" fill="#9EA1A1" />
<rect x="27" y="26" width="1" height="2" fill="#343535" />
<rect x="28" y="26" width="1" height="3" fill="#707272" />
<rect x="29" y="26" width="4" height="1" fill="#9EA1A1" />
<rect x="33" y="26" width="3" height="1" fill="#343535" />
<rect x="6" y="27" width="1" height="1" fill="#343535" />
<rect x="7" y="27" width="1" height="1" fill="#9EA1A1" />
<rect x="9" y="27" width="1" height="1" fill="#707272" />
<rect x="10" y="27" width="1" height="1" fill="#636363" />
<rect x="11" y="27" width="1" height="1" fill="#343535" />
<rect x="16" y="27" width="1" height="1" fill="#343535" />
<rect x="17" y="27" width="1" height="3" fill="#707272" />
<rect x="25" y="27" width="1" height="1" fill="#9EA1A1" />
<rect x="26" y="27" width="1" height="1" fill="#707272" />
<rect x="29" y="27" width="3" height="2" fill="#707272" />
<rect x="32" y="27" width="4" height="1" fill="#9EA1A1" />
<rect x="36" y="27" width="2" height="1" fill="#343535" />
<rect x="7" y="28" width="1" height="1" fill="#343535" />
<rect x="8" y="28" width="2" height="1" fill="#9EA1A1" />
<rect x="10" y="28" width="2" height="1" fill="#707272" />
<rect x="12" y="28" width="4" height="1" fill="#343535" />
<rect x="16" y="28" width="1" height="2" fill="#707272" />
<rect x="24" y="28" width="1" height="3" fill="#707272" />
<rect x="25" y="28" width="2" height="1" fill="#343535" />
<rect x="27" y="28" width="1" height="2" fill="#707272" />
<rect x="32" y="28" width="4" height="2" fill="#707272" />
<rect x="36" y="28" width="2" height="1" fill="#9EA1A1" />
<rect x="38" y="28" width="2" height="1" fill="#343535" />
<rect x="8" y="29" width="2" height="1" fill="#343535" />
<rect x="10" y="29" width="2" height="1" fill="#9EA1A1" />
<rect x="12" y="29" width="4" height="1" fill="#707272" />
<rect x="18" y="29" width="3" height="1" fill="#9EA1A1" />
<rect x="21" y="29" width="2" height="1" fill="#707272" />
<rect x="25" y="29" width="2" height="1" fill="#707272" />
<rect x="28" y="29" width="3" height="1" fill="#9EA1A1" />
<rect x="31" y="29" width="1" height="1" fill="#707272" />
<rect x="36" y="29" width="1" height="4" fill="#707272" />
<rect x="37" y="29" width="3" height="1" fill="#9EA1A1" />
<rect x="40" y="29" width="1" height="1" fill="#343535" />
<rect x="10" y="30" width="1" height="1" fill="#343535" />
<rect x="11" y="30" width="3" height="1" fill="#9EA1A1" />
<rect x="14" y="30" width="6" height="1" fill="#636363" />
<rect x="20" y="30" width="4" height="1" fill="#9EA1A1" />
<rect x="25" y="30" width="3" height="1" fill="#9EA1A1" />
<rect x="28" y="30" width="3" height="1" fill="#343535" />
<rect x="31" y="30" width="2" height="1" fill="#9EA1A1" />
<rect x="33" y="30" width="3" height="1" fill="#707272" />
<rect x="37" y="30" width="2" height="4" fill="#707272" />
<rect x="39" y="30" width="2" height="1" fill="#9EA1A1" />
<rect x="41" y="30" width="2" height="1" fill="#343535" />
<rect x="11" y="31" width="11" height="1" fill="#343535" />
<rect x="22" y="31" width="3" height="1" fill="#9EA1A1" />
<rect x="25" y="31" width="3" height="1" fill="#343535" />
<rect x="28" y="31" width="2" height="1" fill="#636363" />
<rect x="30" y="31" width="3" height="1" fill="#343535" />
<rect x="33" y="31" width="1" height="1" fill="#9EA1A1" />
<rect x="34" y="31" width="2" height="1" fill="#707272" />
<rect x="39" y="31" width="2" height="5" fill="#707272" />
<rect x="41" y="31" width="2" height="1" fill="#9EA1A1" />
<rect x="43" y="31" width="1" height="1" fill="#343535" />
<rect x="22" y="32" width="3" height="1" fill="#343535" />
<rect x="25" y="32" width="1" height="2" fill="#9EA1A1" />
<rect x="26" y="32" width="3" height="2" fill="#636363" />
<rect x="29" y="32" width="2" height="1" fill="#9EA1A1" />
<rect x="31" y="32" width="1" height="1" fill="#343535" />
<rect x="33" y="32" width="1" height="1" fill="#343535" />
<rect x="34" y="32" width="1" height="1" fill="#9EA1A1" />
<rect x="35" y="32" width="1" height="1" fill="#707272" />
<rect x="41" y="32" width="1" height="5" fill="#707272" />
<rect x="42" y="32" width="2" height="1" fill="#9EA1A1" />
<rect x="44" y="32" width="2" height="1" fill="#343535" />
<rect x="24" y="33" width="1" height="1" fill="#343535" />
<rect x="29" y="33" width="1" height="1" fill="#636363" />
<rect x="30" y="33" width="2" height="1" fill="#9EA1A1" />
<rect x="32" y="33" width="1" height="2" fill="#343535" />
<rect x="34" y="33" width="1" height="1" fill="#343535" />
<rect x="35" y="33" width="2" height="1" fill="#9EA1A1" />
<rect x="42" y="33" width="2" height="5" fill="#707272" />
<rect x="44" y="33" width="2" height="1" fill="#9EA1A1" />
<rect x="46" y="33" width="1" height="1" fill="#343535" />
<rect x="25" y="34" width="1" height="2" fill="#343535" />
<rect x="26" y="34" width="1" height="2" fill="#9EA1A1" />
<rect x="27" y="34" width="2" height="1" fill="#636363" />
<rect x="29" y="34" width="1" height="6" fill="#707272" />
<rect x="30" y="34" width="1" height="2" fill="#636363" />
<rect x="31" y="34" width="1" height="2" fill="#9EA1A1" />
<rect x="35" y="34" width="2" height="1" fill="#343535" />
<rect x="37" y="34" width="1" height="1" fill="#9EA1A1" />
<rect x="38" y="34" width="1" height="1" fill="#707272" />
<rect x="44" y="34" width="1" height="5" fill="#707272" />
<rect x="45" y="34" width="2" height="1" fill="#9EA1A1" />
<rect x="47" y="34" width="1" height="1" fill="#343535" />
<rect x="27" y="35" width="1" height="1" fill="#636363" />
<rect x="28" y="35" width="1" height="1" fill="#707272" />
<rect x="32" y="35" width="1" height="2" fill="#9EA1A1" />
<rect x="33" y="35" width="1" height="1" fill="#343535" />
<rect x="37" y="35" width="1" height="1" fill="#343535" />
<rect x="38" y="35" width="1" height="1" fill="#9EA1A1" />
<rect x="45" y="35" width="2" height="5" fill="#707272" />
<rect x="47" y="35" width="1" height="1" fill="#9EA1A1" />
<rect x="48" y="35" width="2" height="1" fill="#343535" />
<rect x="26" y="36" width="1" height="2" fill="#343535" />
<rect x="27" y="36" width="1" height="2" fill="#9EA1A1" />
<rect x="28" y="36" width="1" height="1" fill="#636363" />
<rect x="30" y="36" width="2" height="5" fill="#707272" />
<rect x="33" y="36" width="1" height="2" fill="#9EA1A1" />
<rect x="34" y="36" width="1" height="1" fill="#343535" />
<rect x="38" y="36" width="1" height="1" fill="#343535" />
<rect x="39" y="36" width="2" height="1" fill="#9EA1A1" />
<rect x="47" y="36" width="1" height="6" fill="#707272" />
<rect x="48" y="36" width="2" height="1" fill="#9EA1A1" />
<rect x="50" y="36" width="1" height="1" fill="#343535" />
<rect x="28" y="37" width="1" height="1" fill="#707272" />
<rect x="32" y="37" width="1" height="7" fill="#707272" />
<rect x="34" y="37" width="1" height="2" fill="#9EA1A1" />
<rect x="35" y="37" width="1" height="1" fill="#343535" />
<rect x="39" y="37" width="2" height="1" fill="#343535" />
<rect x="41" y="37" width="1" height="1" fill="#9EA1A1" />
<rect x="48" y="37" width="1" height="5" fill="#707272" />
<rect x="49" y="37" width="2" height="1" fill="#9EA1A1" />
<rect x="51" y="37" width="1" height="1" fill="#343535" />
<rect x="27" y="38" width="1" height="2" fill="#343535" />
<rect x="28" y="38" width="1" height="2" fill="#9EA1A1" />
<rect x="33" y="38" width="1" height="7" fill="#707272" />
<rect x="35" y="38" width="1" height="3" fill="#9EA1A1" />
<rect x="36" y="38" width="1" height="2" fill="#343535" />
<rect x="41" y="38" width="1" height="1" fill="#343535" />
<rect x="42" y="38" width="1" height="1" fill="#9EA1A1" />
<rect x="43" y="38" width="1" height="1" fill="#707272" />
<rect x="49" y="38" width="1" height="5" fill="#707272" />
<rect x="50" y="38" width="2" height="1" fill="#9EA1A1" />
<rect x="52" y="38" width="1" height="1" fill="#343535" />
<rect x="34" y="39" width="1" height="7" fill="#707272" />
<rect x="42" y="39" width="1" height="1" fill="#343535" />
<rect x="43" y="39" width="2" height="1" fill="#9EA1A1" />
<rect x="50" y="39" width="1" height="5" fill="#707272" />
<rect x="51" y="39" width="2" height="1" fill="#9EA1A1" />
<rect x="53" y="39" width="1" height="2" fill="#343535" />
<rect x="28" y="40" width="1" height="1" fill="#343535" />
<rect x="29" y="40" width="1" height="1" fill="#9EA1A1" />
<rect x="36" y="40" width="1" height="2" fill="#9EA1A1" />
<rect x="37" y="40" width="1" height="1" fill="#343535" />
<rect x="43" y="40" width="2" height="1" fill="#343535" />
<rect x="45" y="40" width="1" height="1" fill="#9EA1A1" />
<rect x="46" y="40" width="1" height="1" fill="#707272" />
<rect x="51" y="40" width="1" height="5" fill="#707272" />
<rect x="52" y="40" width="1" height="1" fill="#9EA1A1" />
<rect x="29" y="41" width="1" height="1" fill="#343535" />
<rect x="30" y="41" width="1" height="1" fill="#9EA1A1" />
<rect x="31" y="41" width="1" height="1" fill="#707272" />
<rect x="35" y="41" width="1" height="6" fill="#707272" />
<rect x="37" y="41" width="1" height="2" fill="#9EA1A1" />
<rect x="38" y="41" width="1" height="1" fill="#343535" />
<rect x="45" y="41" width="1" height="1" fill="#343535" />
<rect x="46" y="41" width="1" height="1" fill="#9EA1A1" />
<rect x="52" y="41" width="1" height="4" fill="#707272" />
<rect x="53" y="41" width="1" height="2" fill="#9EA1A1" />
<rect x="54" y="41" width="1" height="1" fill="#343535" />
<rect x="30" y="42" width="1" height="2" fill="#343535" />
<rect x="31" y="42" width="1" height="2" fill="#9EA1A1" />
<rect x="36" y="42" width="1" height="6" fill="#707272" />
<rect x="38" y="42" width="1" height="2" fill="#9EA1A1" />
<rect x="39" y="42" width="1" height="1" fill="#343535" />
<rect x="46" y="42" width="1" height="1" fill="#343535" />
<rect x="47" y="42" width="2" height="1" fill="#9EA1A1" />
<rect x="54" y="42" width="1" height="2" fill="#9EA1A1" />
<rect x="55" y="42" width="1" height="2" fill="#343535" />
<rect x="37" y="43" width="1" height="6" fill="#707272" />
<rect x="39" y="43" width="1" height="3" fill="#9EA1A1" />
<rect x="40" y="43" width="1" height="2" fill="#343535" />
<rect x="47" y="43" width="2" height="1" fill="#343535" />
<rect x="49" y="43" width="1" height="1" fill="#9EA1A1" />
<rect x="53" y="43" width="1" height="3" fill="#707272" />
<rect x="31" y="44" width="1" height="1" fill="#343535" />
<rect x="32" y="44" width="1" height="1" fill="#9EA1A1" />
<rect x="38" y="44" width="1" height="6" fill="#707272" />
<rect x="49" y="44" width="1" height="1" fill="#343535" />
<rect x="50" y="44" width="1" height="1" fill="#9EA1A1" />
<rect x="54" y="44" width="1" height="3" fill="#707272" />
<rect x="55" y="44" width="1" height="2" fill="#9EA1A1" />
<rect x="56" y="44" width="1" height="2" fill="#343535" />
<rect x="32" y="45" width="1" height="1" fill="#343535" />
<rect x="33" y="45" width="1" height="1" fill="#9EA1A1" />
<rect x="40" y="45" width="1" height="2" fill="#9EA1A1" />
<rect x="41" y="45" width="1" height="1" fill="#343535" />
<rect x="50" y="45" width="1" height="1" fill="#343535" />
<rect x="51" y="45" width="2" height="1" fill="#9EA1A1" />
<rect x="33" y="46" width="1" height="1" fill="#343535" />
<rect x="34" y="46" width="1" height="1" fill="#9EA1A1" />
<rect x="39" y="46" width="1" height="5" fill="#707272" />
<rect x="41" y="46" width="1" height="2" fill="#9EA1A1" />
<rect x="42" y="46" width="1" height="1" fill="#343535" />
<rect x="51" y="46" width="2" height="1" fill="#343535" />
<rect x="53" y="46" width="1" height="1" fill="#9EA1A1" />
<rect x="55" y="46" width="1" height="2" fill="#707272" />
<rect x="56" y="46" width="1" height="3" fill="#9EA1A1" />
<rect x="57" y="46" width="1" height="2" fill="#343535" />
<rect x="34" y="47" width="1" height="1" fill="#343535" />
<rect x="35" y="47" width="1" height="1" fill="#9EA1A1" />
<rect x="40" y="47" width="1" height="5" fill="#707272" />
<rect x="42" y="47" width="1" height="2" fill="#9EA1A1" />
<rect x="43" y="47" width="1" height="1" fill="#343535" />
<rect x="53" y="47" width="1" height="1" fill="#343535" />
<rect x="54" y="47" width="1" height="1" fill="#9EA1A1" />
<rect x="35" y="48" width="1" height="1" fill="#343535" />
<rect x="36" y="48" width="1" height="1" fill="#9EA1A1" />
<rect x="41" y="48" width="1" height="4" fill="#707272" />
<rect x="43" y="48" width="1" height="1" fill="#9EA1A1" />
<rect x="44" y="48" width="1" height="1" fill="#343535" />
<rect x="54" y="48" width="1" height="1" fill="#343535" />
<rect x="55" y="48" width="1" height="1" fill="#9EA1A1" />
<rect x="57" y="48" width="1" height="2" fill="#9EA1A1" />
<rect x="58" y="48" width="1" height="2" fill="#343535" />
<rect x="36" y="49" width="1" height="1" fill="#343535" />
<rect x="37" y="49" width="1" height="1" fill="#9EA1A1" />
<rect x="42" y="49" width="2" height="4" fill="#707272" />
<rect x="44" y="49" width="1" height="3" fill="#9EA1A1" />
<rect x="45" y="49" width="1" height="2" fill="#343535" />
<rect x="55" y="49" width="2" height="1" fill="#343535" />
<rect x="37" y="50" width="1" height="1" fill="#343535" />
<rect x="38" y="50" width="1" height="1" fill="#9EA1A1" />
<rect x="57" y="50" width="1" height="1" fill="#343535" />
<rect x="58" y="50" width="1" height="1" fill="#9EA1A1" />
<rect x="59" y="50" width="1" height="1" fill="#343535" />
<rect x="38" y="51" width="1" height="1" fill="#343535" />
<rect x="39" y="51" width="1" height="1" fill="#9EA1A1" />
<rect x="45" y="51" width="1" height="1" fill="#9EA1A1" />
<rect x="46" y="51" width="1" height="1" fill="#343535" />
<rect x="58" y="51" width="1" height="1" fill="#343535" />
<rect x="39" y="52" width="1" height="1" fill="#343535" />
<rect x="40" y="52" width="2" height="1" fill="#9EA1A1" />
<rect x="44" y="52" width="2" height="2" fill="#707272" />
<rect x="46" y="52" width="1" height="1" fill="#9EA1A1" />
<rect x="47" y="52" width="1" height="1" fill="#343535" />
<rect x="40" y="53" width="2" height="1" fill="#343535" />
<rect x="42" y="53" width="2" height="1" fill="#9EA1A1" />
<rect x="46" y="53" width="1" height="2" fill="#707272" />
<rect x="47" y="53" width="1" height="1" fill="#9EA1A1" />
<rect x="48" y="53" width="1" height="1" fill="#343535" />
<rect x="42" y="54" width="2" height="1" fill="#343535" />
<rect x="44" y="54" width="2" height="1" fill="#9EA1A1" />
<rect x="47" y="54" width="2" height="1" fill="#707272" />
<rect x="49" y="54" width="1" height="2" fill="#343535" />
<rect x="44" y="55" width="2" height="1" fill="#343535" />
<rect x="46" y="55" width="2" height="1" fill="#9EA1A1" />
<rect x="48" y="55" width="1" height="1" fill="#707272" />
<rect x="46" y="56" width="2" height="1" fill="#343535" />
<rect x="48" y="56" width="2" height="1" fill="#9EA1A1" />
<rect x="50" y="56" width="1" height="1" fill="#343535" />
<rect x="48" y="57" width="2" height="1" fill="#343535" />
<rect x="50" y="57" width="1" height="1" fill="#9EA1A1" />
<rect x="51" y="57" width="1" height="1" fill="#343535" />
<rect x="50" y="58" width="1" height="1" fill="#343535" />
</g>
</svg>